<?xml version="1.0" encoding="utf-8"?>
<!-- Generator: Adobe Illustrator 22.1.0, SVG Export Plug-In . SVG Version: 6.00 Build 0)  -->
<svg version="1.1" id="Layer_1" xmlns="http://www.w3.org/2000/svg" xmlns:xlink="http://www.w3.org/1999/xlink" x="0px" y="0px"
	 viewBox="0 0 100 40" style="enable-background:new 0 0 100 40;" xml:space="preserve">
<style type="text/css">
	.st0{fill:#009B48;}
</style>
<g>
	<path class="st0" d="M9.9,28.1c-1.9,0-3.8,0-5.6,0c-0.1,0-0.2,0-0.2,0c-0.3-0.1-0.6-0.4-0.6-0.7c0,0,0-0.1,0-0.1c0-2.2,0-4.5,0-6.7
		c0-0.1,0-0.2,0-0.3c0.1-0.3,0.4-0.6,0.7-0.6c0.2,0,0.4,0,0.7,0c0,0,0,0,0,0c0.1,0,0.1,0,0.1-0.1c0-1.3,0-2.7,0-4
		c0-0.4,0-0.9,0.1-1.3c0.2-0.7,0.5-1.4,1-2c0.5-0.6,1.1-1.1,1.8-1.4c0.5-0.2,0.9-0.3,1.4-0.4c0.7-0.1,1.4,0,2.1,0.2
		c0.7,0.2,1.3,0.6,1.9,1c0.6,0.5,1,1.1,1.3,1.8c0.2,0.4,0.3,0.9,0.4,1.4c0,0.1,0,0.2,0,0.3c0,0.4-0.2,0.8-0.6,0.9
		c-0.5,0.1-0.9-0.2-1-0.7c0-0.2,0-0.4-0.1-0.5c-0.1-0.6-0.3-1-0.7-1.5c-0.4-0.5-0.9-0.9-1.6-1.1c-0.5-0.2-1-0.2-1.5-0.2
		c-1.2,0.1-2.3,0.9-2.8,2c-0.2,0.4-0.3,0.9-0.3,1.4c0,1.4,0,2.7,0,4.1c0,0.1,0,0.1,0.1,0.1c0.2,0,0.5,0,0.7,0c2.7,0,5.5,0,8.2,0
		c0.1,0,0.2,0,0.3,0c0.3,0.1,0.6,0.4,0.6,0.7c0,0,0,0.1,0,0.1c0,2.2,0,4.5,0,6.7c0,0.1,0,0.2,0,0.2c-0.1,0.3-0.4,0.6-0.7,0.6
		c-0.1,0-0.1,0-0.2,0C13.7,28.1,11.8,28.1,9.9,28.1z"/>
</g>
<g>
	<path d="M29.8,14.6v8.8c0,1-0.2,1.9-0.6,2.6c-0.4,0.7-1,1.3-1.8,1.7c-0.8,0.4-1.7,0.6-2.8,0.6c-1.6,0-2.9-0.4-3.9-1.3
		c-1-0.8-1.4-2-1.4-3.5v-8.8h3.2v8.9c0,1.5,0.7,2.2,2,2.2c0.7,0,1.2-0.2,1.5-0.5c0.3-0.4,0.5-1,0.5-1.8v-8.7H29.8z"/>
	<path d="M34.5,18l0.1,1.2c0.7-0.9,1.6-1.4,2.8-1.4c1,0,1.8,0.3,2.3,0.9c0.5,0.6,0.8,1.6,0.8,2.8v6.4h-3.1v-6.3
		c0-0.5-0.1-0.9-0.3-1.1c-0.2-0.2-0.6-0.4-1.1-0.4c-0.6,0-1,0.2-1.4,0.7v7h-3.1V18H34.5z"/>
	<path d="M45.6,27.9h-3.1V13.8h3.1L45.6,27.9L45.6,27.9z"/>
	<path d="M47.1,22.9c0-1,0.2-1.9,0.6-2.6c0.4-0.8,1-1.4,1.7-1.8c0.7-0.4,1.6-0.6,2.5-0.6c1.5,0,2.7,0.5,3.5,1.4
		c0.8,0.9,1.3,2.2,1.3,3.8v0.1c0,1.6-0.4,2.8-1.3,3.7c-0.9,0.9-2,1.4-3.5,1.4c-1.4,0-2.5-0.4-3.4-1.3c-0.9-0.8-1.3-2-1.4-3.4V22.9z
		 M50.2,23.1c0,0.9,0.1,1.6,0.4,2c0.3,0.4,0.7,0.6,1.3,0.6c1.1,0,1.7-0.8,1.7-2.5v-0.3c0-1.8-0.6-2.7-1.7-2.7c-1,0-1.6,0.8-1.7,2.3
		L50.2,23.1L50.2,23.1z"/>
	<path d="M62.2,25.7c0.4,0,0.8-0.1,1-0.4s0.4-0.6,0.3-1h2.9c0,1.1-0.4,2-1.2,2.7c-0.8,0.7-1.8,1-3,1c-1.5,0-2.6-0.4-3.4-1.4
		c-0.8-0.9-1.2-2.2-1.2-3.8v-0.1c0-1,0.2-1.9,0.6-2.7c0.4-0.8,0.9-1.4,1.6-1.8c0.7-0.4,1.5-0.6,2.5-0.6c1.3,0,2.3,0.4,3.1,1.1
		c0.8,0.7,1.1,1.7,1.1,2.9h-2.9c0-0.5-0.1-0.9-0.4-1.2c-0.2-0.3-0.6-0.4-1-0.4c-0.8,0-1.3,0.5-1.4,1.5c0,0.3-0.1,0.8-0.1,1.3
		c0,1,0.1,1.7,0.4,2.1C61.3,25.6,61.7,25.7,62.2,25.7z"/>
	<path d="M71.8,24.3l-0.9,0.9v2.8h-3.1V13.8h3.1v7.5l0.3-0.4l2.3-2.9h3.7l-3.5,4.1l3.7,5.9H74L71.8,24.3z"/>
	<path d="M82.7,28.1c-1.5,0-2.8-0.5-3.7-1.4c-1-0.9-1.4-2.1-1.4-3.6V23c0-1,0.2-1.9,0.6-2.7c0.4-0.8,0.9-1.4,1.7-1.8
		c0.7-0.4,1.6-0.6,2.6-0.6c1.4,0,2.5,0.4,3.3,1.3c0.8,0.9,1.2,2.1,1.2,3.6V24h-6.2c0.1,0.6,0.3,1,0.7,1.3c0.4,0.3,0.8,0.5,1.5,0.5
		c1,0,1.8-0.3,2.3-1l1.4,1.7c-0.4,0.5-0.9,1-1.6,1.3C84.3,28,83.6,28.1,82.7,28.1z M82.4,20.2c-0.9,0-1.5,0.6-1.6,1.8h3.1v-0.2
		c0-0.5-0.1-0.9-0.4-1.2C83.3,20.4,82.9,20.2,82.4,20.2z"/>
	<path d="M87.8,22.9c0-1.6,0.3-2.8,1-3.7c0.7-0.9,1.6-1.4,2.8-1.4c0.9,0,1.6,0.3,2.2,1v-5H97v14.1h-2.8l-0.2-1.1
		c-0.6,0.8-1.5,1.2-2.4,1.2c-1.2,0-2.1-0.4-2.8-1.4C88.1,25.9,87.8,24.6,87.8,22.9z M90.9,23.1c0,1.8,0.5,2.6,1.5,2.6
		c0.7,0,1.2-0.3,1.5-0.9v-3.8c-0.3-0.6-0.8-0.9-1.5-0.9c-1,0-1.5,0.8-1.6,2.3L90.9,23.1z"/>
</g>
</svg>
