<?xml version="1.0" encoding="utf-8"?>
<!-- Generator: Adobe Illustrator 21.1.0, SVG Export Plug-In . SVG Version: 6.00 Build 0)  -->
<svg version="1.1" id="Layer_1" xmlns="http://www.w3.org/2000/svg" xmlns:xlink="http://www.w3.org/1999/xlink" x="0px" y="0px"
	 viewBox="0 0 100 40" style="enable-background:new 0 0 100 40;" xml:space="preserve">
<style type="text/css">
	.st0{fill:#00A8E0;}
</style>
<path d="M89.7,27.6c-0.2,0-0.4-0.2-0.4-0.4V14.9h-4.2c-0.2,0-0.4-0.2-0.4-0.4v-1.7c0-0.2,0.2-0.4,0.4-0.4h11.1
	c0.2,0,0.4,0.2,0.4,0.4v1.7c0,0.2-0.2,0.4-0.4,0.4H92v12.3c0,0.2-0.2,0.4-0.4,0.4H89.7 M57.8,21.5l-2.2-6.3l-2.2,6.3H57.8L57.8,21.5
	z M62.6,27.1c0.1,0.2-0.1,0.5-0.3,0.5h-2c-0.3,0-0.5-0.1-0.6-0.4L58.6,24h-6.1l-1.1,3.2c-0.1,0.3-0.3,0.4-0.6,0.4H49
	c-0.2,0-0.4-0.2-0.3-0.5l5.1-14.3c0.1-0.3,0.3-0.4,0.6-0.4h2.5c0.3,0,0.5,0.1,0.6,0.4L62.6,27.1 M77.4,25.6c1.2,0,2-0.6,2.7-1.6
	L77,20.7c-1.2,0.7-1.9,1.3-1.9,2.7C75.1,24.6,76.1,25.6,77.4,25.6 M78.2,14.4c-1,0-1.6,0.6-1.6,1.5c0,0.6,0.3,1.2,1.1,2.1
	c1.3-0.8,1.9-1.3,1.9-2.1C79.7,15.1,79.2,14.4,78.2,14.4 M86.6,27.1c0.2,0.3,0.1,0.5-0.2,0.5H84c-0.3,0-0.5-0.1-0.7-0.3l-1.4-1.6
	c-1,1.3-2.3,2.3-4.6,2.3c-2.8,0-5-1.7-5-4.5c0-2.2,1.2-3.4,3-4.4C74.4,18,74,17,74,16c0-2.4,1.7-4,4.1-4c2.5,0,4.1,1.5,4.1,3.7
	c0,1.9-1.4,3-2.8,3.8l2.1,2.3l1.2-2.1c0.2-0.2,0.3-0.3,0.6-0.3h1.8c0.3,0,0.5,0.2,0.3,0.5l-2.1,3.6L86.6,27.1 M67.7,27.6
	c0.2,0,0.4-0.2,0.4-0.4V14.9h4.2c0.2,0,0.4-0.2,0.4-0.4v-1.7c0-0.2-0.2-0.4-0.4-0.4H61.2c-0.2,0-0.4,0.2-0.4,0.4v1.7
	c0,0.2,0.2,0.4,0.4,0.4h4.2v12.3c0,0.2,0.2,0.4,0.4,0.4H67.7L67.7,27.6z"/>
<path class="st0" d="M11.4,35c3.2,2.5,7.3,4,11.7,4c4.8,0,9.2-1.8,12.5-4.7c0,0,0-0.1,0,0c-1.5,1-5.8,3.2-12.5,3.2
	C17.3,37.4,13.6,36.1,11.4,35C11.4,35,11.4,35,11.4,35 M24.4,36c4.7,0,9.8-1.3,12.9-3.8c0.8-0.7,1.6-1.6,2.4-2.8
	c0.4-0.7,0.8-1.5,1.1-2.4c0,0,0-0.1,0,0c-2.9,4.2-11.1,6.8-19.7,6.8c-6,0-12.5-1.9-15.1-5.6c0,0-0.1,0,0,0C8.3,33.2,15.5,36,24.4,36
	 M19.3,27.6C9.6,27.6,5,23.1,4.1,20c0,0,0,0,0,0c0,1,0.1,2.4,0.3,3.3c0.1,0.4,0.4,1.1,1,1.7c2.4,2.5,8.2,5.9,18.4,5.9
	c13.9,0,17-4.6,17.7-6.1c0.5-1.1,0.7-3,0.7-4.7c0-0.4,0-0.7,0-1c0-0.1,0-0.1,0,0C41.4,22.7,29.5,27.6,19.3,27.6 M5.9,11.8
	c-0.6,1.1-1.2,3-1.4,3.9c-0.1,0.4,0,0.6,0.1,0.9c1.2,2.5,7.1,6.4,20.8,6.4c8.4,0,14.9-2.1,16-5.8c0.2-0.7,0.2-1.4,0-2.4
	c-0.3-1.1-0.8-2.4-1.2-3.3c0,0,0,0,0,0c0.2,4.9-13.6,8.1-20.5,8.1c-7.5,0-13.8-3-13.8-6.8C5.8,12.6,5.9,12.2,5.9,11.8
	C6,11.8,5.9,11.8,5.9,11.8 M35.7,5.8c0.1,0.1,0.1,0.3,0.1,0.4c0,2.1-6.5,5.8-16.7,5.8c-7.6,0-9-2.8-9-4.6c0-0.6,0.2-1.3,0.8-2
	c0,0,0-0.1,0,0c-1,0.8-1.9,1.8-2.7,2.8C7.8,8.8,7.5,9.2,7.5,9.4c0,3.7,9.3,6.4,17.9,6.4c9.2,0,13.3-3,13.3-5.7
	c0-0.9-0.4-1.5-1.3-2.6C36.9,6.9,36.3,6.3,35.7,5.8C35.7,5.7,35.6,5.8,35.7,5.8 M32.8,3.7C30,2,26.7,1,23.1,1c-3.6,0-7,1-9.9,2.8
	c-0.9,0.5-1.3,1-1.3,1.5c0,1.6,3.7,3.3,10.4,3.3C28.9,8.6,34,6.7,34,4.9C34,4.4,33.6,4.1,32.8,3.7"/>
</svg>
