<?xml version="1.0" encoding="utf-8"?>
<!-- Generator: Adobe Illustrator 21.1.0, SVG Export Plug-In . SVG Version: 6.00 Build 0)  -->
<svg version="1.1" id="Layer_1" xmlns="http://www.w3.org/2000/svg" xmlns:xlink="http://www.w3.org/1999/xlink" x="0px" y="0px"
	 viewBox="0 0 100 40" style="enable-background:new 0 0 100 40;" xml:space="preserve">
<style type="text/css">
	.st0{fill:#FFDD05;}
</style>
<path d="M6.9,31.3c-1.3,0-2.5-0.2-3.5-0.4l0.2-2.6c1,0.4,2.3,0.6,3.6,0.6c1.9,0,3.4-0.8,3.4-2.7c0-3.6-7.6-2.1-7.6-7.7
	c0-3,2.3-5.1,6.4-5.1c1,0,2.1,0.1,3.1,0.3l-0.2,2.5c-1-0.3-2.1-0.5-3.1-0.5c-2.2,0-3.3,1-3.3,2.4c0,3.5,7.6,2.2,7.6,7.6
	C13.5,29,11,31.3,6.9,31.3 M20.3,31.2c-0.7,0-1.3,0-1.9-0.2v5.6h-2.7V18.3h2.6c0,0.7,0,1.7-0.2,2.4h0.1c0.7-1.6,2.2-2.6,4.1-2.6
	c3,0,4.7,2.2,4.7,6C26.9,28.5,24.5,31.2,20.3,31.2 M21.5,20.3c-2.1,0-3.2,2.4-3.2,4.6v3.9c0.6,0.2,1.2,0.3,2,0.3
	c2.2,0,3.7-1.3,3.7-4.8C24,21.7,23.2,20.3,21.5,20.3L21.5,20.3z M35.7,20.7C33.2,20.2,32,22,32,25.8V31h-2.7V18.3h2.6
	c0,0.7-0.1,1.8-0.3,2.8h0.1c0.6-1.7,1.8-3.3,4.2-3.1L35.7,20.7 M39.7,16.4c-1,0-1.8-0.8-1.8-1.7c0-0.9,0.8-1.7,1.8-1.7
	c0.9,0,1.7,0.7,1.7,1.7C41.4,15.6,40.6,16.4,39.7,16.4 M41,31h-2.7V18.3H41V31z M52.3,31v-8.2c0-1.6-0.4-2.5-1.9-2.5
	c-1.9,0-3.3,2-3.3,4.6V31h-2.7V18.3h2.6c0,0.7-0.1,1.8-0.2,2.5l0,0c0.7-1.6,2.3-2.8,4.4-2.8c2.9,0,3.8,1.8,3.8,4.1V31L52.3,31
	 M62.6,31.3c-2.7,0-3.5-1.1-3.5-3.9v-7h-2.4v-2.1h2.4v-4.1l2.7-0.7v4.8h3.4v2.1h-3.3v6.1c0,1.9,0.4,2.4,1.7,2.4
	c0.6,0,1.2-0.1,1.7-0.2V31C64.4,31.1,63.5,31.3,62.6,31.3"/>
<path class="st0" d="M77.6,27.5c3.7-4.8,6.7-10.5,6.7-14.5c0-2.1-1.5-3.6-3.5-4.7C80.8,12.6,79.3,23,77.6,27.5 M65.4,39.4
	c8.8-2.9,21.5-9.8,30.3-15.9c0.7-0.5,1.3-1,1.3-1.8c0-1.4-2.6-3.4-3.9-4.1C86.1,24.8,72.3,35.6,65.4,39.4"/>
<path class="st0" d="M73.5,33.2c5.4-3.7,13.3-10.8,15.9-14.6c0.6-0.9,1.1-1.4,1.1-2.4c0-1.5-1.8-2.7-3.1-3.5
	C84.3,20.1,77.3,29.2,73.5,33.2 M78.4,22.8c0.7-4.6,0.3-10.2-0.6-13.7c-0.5-1.9-2.2-4.1-3.8-4.7C76.1,10.3,77.9,18.8,78.4,22.8"/>
<path class="st0" d="M76.9,16.4c-1.6-4.4-5.7-13.7-11.7-15.9C69.1,4.7,74.9,13.3,76.9,16.4"/>
</svg>
