<?xml version="1.0" encoding="utf-8"?>
<!-- Generator: Adobe Illustrator 21.1.0, SVG Export Plug-In . SVG Version: 6.00 Build 0)  -->
<svg version="1.1" id="Layer_1" xmlns="http://www.w3.org/2000/svg" xmlns:xlink="http://www.w3.org/1999/xlink" x="0px" y="0px"
	 viewBox="0 0 100 40" style="enable-background:new 0 0 100 40;" xml:space="preserve">
<style type="text/css">
	.st0{fill:#ED008C;}
</style>
<path id="path3209" class="st0" d="M74.6,12.5c0,0.7-0.6,1.3-1.3,1.3c-0.7,0-1.3-0.6-1.3-1.3c0-0.7,0.6-1.3,1.3-1.3
	C74,11.2,74.6,11.8,74.6,12.5C74.6,12.5,74.6,12.5,74.6,12.5z"/>
<path id="rect3211" class="st0" d="M94.1,18.3h3.3v3.3h-3.3V18.3z"/>
<path id="rect3213" class="st0" d="M29.4,18.3h3.3v3.3h-3.3V18.3z"/>
<path id="rect3215" class="st0" d="M19.6,18.3h3.3v3.3h-3.3V18.3z"/>
<path id="rect3217" class="st0" d="M10,18.3h3.3v3.3H10V18.3z"/>
<path id="rect3219" class="st0" d="M0,18.3h3.3v3.3H0V18.3z"/>
<path id="path3221" class="st0" d="M7.8,11.7h0.4c2.5,0,3.7,1.3,4.2,4.9l0.8,0L13,10.9H0.3l-0.1,5.7l0.7,0c0.1-1.3,0.3-2.1,0.6-2.8
	c0.6-1.3,1.8-2.1,3.4-2.1h0.5V24c0,1.3-0.1,1.7-0.4,2c-0.3,0.2-0.8,0.3-1.4,0.3H3.1v0.8h7.1v-0.8H9.6c-0.6,0-1.1-0.1-1.4-0.3
	c-0.3-0.3-0.4-0.7-0.4-2L7.8,11.7"/>
<path id="path3223" class="st0" d="M41.5,27.2l4.1-14.4v11.3c0,1.2-0.1,1.7-0.3,2c-0.2,0.2-0.7,0.3-1.2,0.3h-0.2v0.8h5.8v-0.8h-0.3
	c-0.5,0-1-0.1-1.2-0.3c-0.3-0.3-0.3-0.7-0.3-2v-9.6c0-1.2,0.1-1.7,0.3-2c0.2-0.2,0.7-0.3,1.2-0.3h0.3v-0.8h-4.6L41.7,23l-3.3-11.6
	h-4.5v0.8h0.4c1.2,0,1.5,0.3,1.5,1.9v9.2c0,1.5-0.1,2.1-0.3,2.5c-0.2,0.4-0.7,0.7-1.2,0.7h-0.4v0.8h4.8v-0.8h-0.3
	c-0.6,0-1.1-0.2-1.4-0.7s-0.3-0.9-0.3-2.5V12.8l4.1,14.4H41.5"/>
<path id="path3225" class="st0" d="M54.7,15.9c-2.9,0-4.8,2.3-4.8,5.8c0,3.4,1.9,5.8,4.7,5.8c2.8,0,4.7-2.3,4.7-5.8
	C59.3,18.3,57.4,15.9,54.7,15.9 M54.6,16.7c0.8,0,1.6,0.5,1.9,1.4c0.4,0.8,0.5,2,0.5,3.6c0,3.4-0.8,5-2.5,5c-1.7,0-2.5-1.7-2.5-5.1
	c0-1.6,0.2-2.7,0.5-3.6C53.1,17.2,53.8,16.7,54.6,16.7"/>
<path id="path3227" class="st0" d="M63.2,11.2l-3.3,0.2v0.7h0.2c1,0,1.2,0.3,1.2,1.9v10.8c0,1.4,0,1.8-0.2,2.4h0.8
	c0.6-1,0.7-1.1,1-1.1c0.1,0,0.2,0,0.4,0.2c1.2,0.9,1.6,1.1,2.7,1.1c2.5,0,4.3-2.4,4.3-5.9c0-3.3-1.7-5.5-4.2-5.5
	c-1.3,0-2.2,0.6-2.8,1.8L63.2,11.2 M65.6,16.8c1.5,0,2.3,1.6,2.3,4.7c0,3.3-0.8,5-2.3,5c-1.7,0-2.6-1.7-2.6-4.9
	c0-1.6,0.2-2.7,0.7-3.5C64.2,17.3,64.9,16.8,65.6,16.8"/>
<path id="path3229" class="st0" d="M74.5,16.1l-3.4,0.2V17h0.3c1,0,1.2,0.3,1.2,1.9v5.6c0,1.5-0.2,1.9-1.2,1.9h-0.4v0.8H76v-0.8
	h-0.4c-1,0-1.2-0.3-1.2-1.9L74.5,16.1"/>
<path id="path3231" class="st0" d="M80.4,11.2l-3.4,0.2v0.7h0.3c1,0,1.2,0.3,1.2,1.9v10.5c0,1.6-0.2,1.9-1.2,1.9h-0.4v0.8h5.1v-0.8
	h-0.4c-1,0-1.2-0.3-1.2-1.9L80.4,11.2"/>
<path id="path3233" class="st0" d="M91.2,21.6c-0.1-3.5-1.8-5.7-4.3-5.7c-2.5,0-4.2,2.4-4.2,5.7c0,3.6,1.7,5.9,4.5,5.9
	c1.7,0,3-0.9,4-3l-0.7-0.4c-0.8,1.7-1.6,2.4-2.9,2.4c-1.8,0-2.6-1.5-2.7-4.9L91.2,21.6 M84.8,20.8c0-2.5,0.8-4.1,2.1-4.1
	c1.3,0,2.1,1.5,2,4.1H84.8"/>
<g id="g3235">
	<g id="g3237">
		<path id="path3239" class="st0" d="M98.6,15.6c0.2,0,0.4,0,0.6,0.1s0.3,0.2,0.4,0.4c0.1,0.2,0.2,0.4,0.2,0.6s-0.1,0.4-0.2,0.6
			c-0.1,0.2-0.2,0.3-0.4,0.4C99,17.9,98.8,18,98.6,18s-0.4-0.1-0.6-0.2s-0.3-0.2-0.4-0.4c-0.1-0.2-0.2-0.4-0.2-0.6s0.1-0.4,0.2-0.6
			c0.1-0.2,0.2-0.3,0.4-0.4C98.2,15.7,98.4,15.6,98.6,15.6z M98.6,15.9c-0.2,0-0.3,0-0.5,0.1c-0.2,0.1-0.3,0.2-0.4,0.4
			s-0.1,0.3-0.1,0.5c0,0.2,0,0.3,0.1,0.5c0.1,0.2,0.2,0.3,0.4,0.4c0.2,0.1,0.3,0.1,0.5,0.1c0.2,0,0.3,0,0.5-0.1
			c0.2-0.1,0.3-0.2,0.4-0.4c0.1-0.2,0.1-0.3,0.1-0.5s0-0.3-0.1-0.5s-0.2-0.3-0.4-0.4C98.9,15.9,98.8,15.9,98.6,15.9z M98.1,17.5
			v-1.3h0.4c0.1,0,0.3,0,0.3,0c0.1,0,0.1,0.1,0.2,0.1s0.1,0.1,0.1,0.2c0,0.1,0,0.2-0.1,0.2c-0.1,0.1-0.2,0.1-0.3,0.1
			c0,0,0.1,0,0.1,0.1c0.1,0,0.1,0.1,0.2,0.2l0.2,0.2h-0.2l-0.1-0.2c-0.1-0.2-0.2-0.3-0.2-0.3c0,0-0.1,0-0.2,0h-0.1v0.5H98.1
			L98.1,17.5z M98.3,16.8h0.2c0.1,0,0.2,0,0.2-0.1c0,0,0.1-0.1,0.1-0.1c0,0,0-0.1,0-0.1c0,0,0-0.1-0.1-0.1c0,0-0.1,0-0.2,0h-0.2
			C98.3,16.4,98.3,16.8,98.3,16.8z"/>
	</g>
</g>
</svg>
