<?xml version="1.0" encoding="utf-8"?>
<!-- Generator: Adobe Illustrator 21.1.0, SVG Export Plug-In . SVG Version: 6.00 Build 0)  -->
<svg version="1.1" id="Layer_1" xmlns="http://www.w3.org/2000/svg" xmlns:xlink="http://www.w3.org/1999/xlink" x="0px" y="0px"
	 viewBox="0 0 100 40" style="enable-background:new 0 0 100 40;" xml:space="preserve">
<style type="text/css">
	.st0{fill:#CD040B;}
</style>
<path class="st0" d="M97.8,8l-5.4,11.7l-2.1-4.4h-2.2l3.4,7.2h1.8L100,8v0H97.8z"/>
<path d="M39.9,10.1h4.4V14h-4.4V10.1z M5.1,29.7h4.6l5-14.4h-4.4l-2.8,9.3H7.5l-2.8-9.3H0.1L5.1,29.7L5.1,29.7z M21.4,18
	c1.6,0,2.6,1.2,2.8,2.8h-5.9C18.6,19.1,19.5,18,21.4,18 M21.6,26.9c-1.9,0-3.1-1.3-3.4-3.2h10.4c0-3.1-0.8-5.6-2.5-7.1
	c-1.2-1.1-2.8-1.7-4.8-1.7c-4.3,0-7.4,3.3-7.4,7.6c0,4.3,2.9,7.7,7.6,7.7c1.8,0,3.2-0.5,4.4-1.3c1.3-0.9,2.2-2.1,2.4-3.4h-4.2
	C23.8,26.3,22.9,26.9,21.6,26.9 M29.7,29.7h4.4v-6.6c0-3,1.8-4.3,4.6-4h0.1v-3.8c-0.2-0.1-0.5-0.1-0.9-0.1c-1.7,0-2.9,0.8-3.9,2.5
	h-0.1v-2.4h-4.2L29.7,29.7L29.7,29.7z M39.9,29.7h4.4V15.2h-4.4V29.7z M45.6,29.7h12.3v-3.5h-7v-0.1l6.7-7.5v-3.4h-12v3.5h6.8v0.1
	l-6.8,7.6L45.6,29.7L45.6,29.7z M65.7,26.9c-2.1,0-3.2-1.7-3.2-4.4c0-2.7,1.1-4.4,3.2-4.4c2.1,0,3.2,1.7,3.2,4.4
	C69,25.1,67.8,26.9,65.7,26.9 M65.8,14.8c-4.6,0-7.7,3.3-7.7,7.6c0,4.3,3.1,7.6,7.7,7.6c4.6,0,7.7-3.3,7.7-7.6
	C73.4,18.1,70.4,14.8,65.8,14.8 M74.4,29.7h4.4v-8c0-1.8,1.1-3.1,2.6-3.1c1.5,0,2.3,1.1,2.3,2.6v8.6h4.4v-9.4c0-3.2-1.9-5.4-5-5.4
	c-2,0-3.4,0.8-4.4,2.4h-0.1v-2h-4.3L74.4,29.7L74.4,29.7z"/>
</svg>
